<svg xmlns="http://www.w3.org/2000/svg" viewBox="0 0 1000 600" aria-hidden="true">
  <defs>
    <linearGradient id="sky" x1="0" y1="0" x2="0" y2="1">
      <stop offset="0" stop-color="#070b18"/>
      <stop offset="0.6" stop-color="#0d1430"/>
      <stop offset="1" stop-color="#151d3d"/>
    </linearGradient>
    <linearGradient id="floor" x1="0" y1="0" x2="0" y2="1">
      <stop offset="0" stop-color="#1e2438"/>
      <stop offset="1" stop-color="#0e111c"/>
    </linearGradient>
    <radialGradient id="spot" cx="50%" cy="85%" r="55%">
      <stop offset="0" stop-color="#ffffff" stop-opacity="0.14"/>
      <stop offset="1" stop-color="#ffffff" stop-opacity="0"/>
    </radialGradient>
    <radialGradient id="glowL" cx="20%" cy="70%" r="45%">
      <stop offset="0" stop-color="#ff5a5f" stop-opacity="0.18"/>
      <stop offset="1" stop-color="#ff5a5f" stop-opacity="0"/>
    </radialGradient>
    <radialGradient id="glowR" cx="80%" cy="70%" r="45%">
      <stop offset="0" stop-color="#29b6f6" stop-opacity="0.18"/>
      <stop offset="1" stop-color="#29b6f6" stop-opacity="0"/>
    </radialGradient>
  </defs>
  <rect width="1000" height="560" fill="url(#sky)"/>
  <rect width="1000" height="560" fill="url(#glowL)"/>
  <rect width="1000" height="560" fill="url(#glowR)"/>
  <rect width="1000" height="560" fill="url(#spot)"/>
  <path fill="#0a0f22" d="M0,520 L0,380 L80,360 L160,340 L240,350 L320,330 L400,345 L480,325 L560,340 L640,330 L720,345 L800,335 L880,350 L960,340 L1000,360 L1000,520 Z"/>
  <rect x="40" y="300" width="120" height="24" rx="4" fill="#ff5a5f" opacity="0.45"/>
  <rect x="840" y="300" width="120" height="24" rx="4" fill="#29b6f6" opacity="0.45"/>
  <g fill="#fff" opacity="0.4">
    <circle cx="120" cy="80" r="1.2"/><circle cx="340" cy="45" r="1"/><circle cx="780" cy="110" r="1.4"/>
    <circle cx="620" cy="60" r="0.9"/><circle cx="900" cy="90" r="1.1"/><circle cx="480" cy="130" r="0.8"/>
  </g>
  <rect y="560" width="1000" height="40" fill="url(#floor)"/>
  <rect y="560" width="1000" height="4" fill="rgba(255,255,255,0.12)"/>
  <line x1="500" y1="554" x2="500" y2="600" stroke="#ffd54a" stroke-width="3" opacity="0.5"/>
</svg>
